<?xml version="1.0" encoding="UTF-8"?>
<svg width="63px" height="29px" viewBox="0 0 63 29" version="1.1" xmlns="http://www.w3.org/2000/svg" xmlns:xlink="http://www.w3.org/1999/xlink">
    <!-- Generator: Sketch 42 (36781) - http://www.bohemiancoding.com/sketch -->
    <title>Group 2</title>
    <desc>Created with Sketch.</desc>
    <defs>
        <polygon id="path-1" points="0.325478469 0.233971292 8.20131551 0.233971292 8.20131551 18.9244737 0.325478469 18.9244737 0.325478469 0.233971292"></polygon>
    </defs>
    <g id="Page-1" stroke="none" stroke-width="1" fill="none" fill-rule="evenodd">
        <g id="landing" transform="translate(-159.000000, -38.000000)">
            <g id="Group-2" transform="translate(159.000000, 38.000000)">
                <g id="logo">
                    <g id="Group-3">
                        <path d="M11.9881579,9.85356459 L11.9881579,28.9624163 C11.932177,28.9085885 11.8395933,28.8138517 11.7448565,28.7191148 C9.55944976,26.5337081 7.37188995,24.3526077 5.19078947,22.1628947 C3.50921053,20.4770096 3.51997608,18.3260526 5.21232057,16.6294019 C7.36327751,14.4741388 9.51854067,12.3231818 11.6716507,10.1700718 L11.9881579,9.85356459 Z" id="Fill-1" fill="#00A99D"></path>
                        <polyline id="Fill-3" fill="#28275A" points="14.1412679 28.9626316 11.8761962 28.9626316 11.8761962 11.8949282 0.333373206 11.8949282 0.333373206 9.8537799 14.3049043 9.8537799"></polyline>
                        <polyline id="Fill-5" fill="#28275A" points="11.7638038 9.85356459 25.7353349 9.85356459 25.7353349 11.8947129 14.192512 11.8947129 14.192512 28.9624163 11.9274402 28.9624163"></polyline>
                        <g id="Group-9" transform="translate(11.124402, 0.483732)">
                            <mask id="mask-2" fill="white">
                                <use xlink:href="#path-1"></use>
                            </mask>
                            <g id="Clip-8"></g>
                            <path d="M0.325478469,18.9244737 L0.635526316,18.6144258 C2.74126794,16.5086842 4.84916268,14.4050957 6.9527512,12.297201 C8.60849282,10.6371531 8.61925837,8.5357177 6.9742823,6.8842823 C4.84055024,4.74409091 2.70035885,2.60820574 0.564473684,0.472320574 C0.471889952,0.379736842 0.37930622,0.28715311 0.325478469,0.233325359 L0.325478469,18.9244737" id="Fill-7" fill="#00A99D" mask="url(#mask-2)"></path>
                        </g>
                    </g>
                </g>
                <path d="M25.2347799,22.6531797 C25.189225,22.6759571 25.1227918,22.7063266 25.0354783,22.744289 C24.9481649,22.7822514 24.847566,22.8202132 24.7336789,22.8581756 C24.6197917,22.896138 24.4907215,22.9303036 24.3464644,22.9606735 C24.2022073,22.9910435 24.05036,23.0062282 23.890918,23.0062282 C23.7238835,23.0062282 23.5644438,22.9834511 23.4125943,22.9378962 C23.2607447,22.8923414 23.1278783,22.822112 23.0139911,22.727206 C22.900104,22.6323 22.8089956,22.5127203 22.7406633,22.3684632 C22.672331,22.2242061 22.6381654,22.0571741 22.6381654,21.8673622 L22.6381654,17.6193919 L21.8181818,17.6193919 L21.8181818,17.0044042 L22.6381654,17.0044042 L22.6381654,15 L23.4125943,15 L23.4125943,17.0044042 L24.7792335,17.0044042 L24.7792335,17.6193919 L23.4125943,17.6193919 L23.4125943,21.6509776 C23.4277792,21.8711595 23.5037029,22.0324972 23.6403675,22.1349957 C23.7770321,22.2374941 23.9402679,22.2887426 24.1300799,22.2887426 C24.3502617,22.2887426 24.543867,22.2526789 24.7109015,22.1805503 C24.8779361,22.1084218 24.9842292,22.0571733 25.029784,22.0268034 L25.2347799,22.6531797 Z M29.1069244,17.6877238 C28.5830434,17.7029088 28.1275016,17.8471637 27.7402852,18.1204929 C27.3530688,18.3938221 27.0797437,18.7696442 26.9203016,19.2479703 L26.9203016,22.9378962 L26.1458727,22.9378962 L26.1458727,17.0044042 L26.874747,17.0044042 L26.874747,18.4279867 C27.0797439,18.0104004 27.3492728,17.6630498 27.6833419,17.3859243 C28.0174109,17.1087989 28.3780482,16.9702382 28.7652646,16.9702382 L28.9588718,16.9702382 C29.0196116,16.9702382 29.068962,16.9740344 29.1069244,16.9816269 L29.1069244,17.6877238 Z M31.9768668,23.0517828 C31.3542836,23.0517828 30.883557,22.8372985 30.5646729,22.4083235 C30.2457888,21.9793485 30.0863492,21.3396918 30.0863492,20.4893343 L30.0863492,17.0044042 L30.8607781,17.0044042 L30.8607781,20.3526703 C30.8607781,21.696539 31.3201161,22.3684632 32.238806,22.3684632 C32.4665803,22.3684632 32.6905551,22.3305014 32.9107369,22.2545766 C33.1309188,22.1786518 33.3340145,22.0685625 33.5200303,21.9243055 C33.706046,21.7800484 33.873078,21.6092202 34.0211313,21.4118157 C34.1691846,21.2144113 34.2887644,20.9904366 34.3798741,20.7398848 L34.3798741,17.0044042 L35.154303,17.0044042 L35.154303,21.9356941 C35.154303,22.1482835 35.2492076,22.2545766 35.4390195,22.2545766 L35.4390195,22.9378962 C35.28717,22.9606737 35.1808769,22.9720622 35.120137,22.9720622 C34.94551,22.9720622 34.7955608,22.9189157 34.670285,22.812621 C34.5450091,22.7063263 34.4823721,22.5734599 34.4823721,22.4140178 L34.4823721,21.5940343 C34.2166353,22.0571755 33.8635904,22.4159147 33.4232267,22.6702627 C32.9828629,22.9246107 32.5007478,23.0517828 31.9768668,23.0517828 Z M39.5047712,23.0517828 C39.072,23.0517828 38.6734009,22.9701649 38.3089619,22.8069266 C37.944523,22.6436883 37.6294398,22.4197136 37.3637031,22.1349957 C37.0979664,21.8502777 36.8910744,21.521908 36.7430211,21.1498766 C36.5949678,20.7778451 36.5209422,20.379246 36.5209422,19.9540672 C36.5209422,19.5364809 36.5949678,19.1435761 36.7430211,18.7753409 C36.8910744,18.4071057 37.0979664,18.0844302 37.3637031,17.8073048 C37.6294398,17.5301793 37.9426249,17.3100007 38.3032676,17.1467625 C38.6639103,16.9835242 39.0606113,16.9019063 39.4933826,16.9019063 C39.9261538,16.9019063 40.3228549,16.9835242 40.6834976,17.1467625 C41.0441403,17.3100007 41.3535291,17.5320774 41.6116734,17.8129991 C41.8698177,18.0939208 42.0710153,18.4165963 42.2152724,18.7810352 C42.3595295,19.1454742 42.4316569,19.5326847 42.4316569,19.9426786 C42.4316569,20.0034184 42.4297588,20.0641573 42.4259626,20.1248971 C42.4221664,20.185637 42.4164721,20.227395 42.4088796,20.2501724 L37.3409258,20.2501724 C37.3637032,20.5690565 37.4377288,20.8632606 37.5630047,21.1327936 C37.6882806,21.4023265 37.8477202,21.6357917 38.0413284,21.8331962 C38.2349366,22.0306006 38.4589113,22.184346 38.7132594,22.2944369 C38.9676074,22.4045278 39.2390344,22.4595725 39.5275486,22.4595725 C39.724953,22.4595725 39.9185583,22.4329992 40.1083702,22.3798519 C40.2981822,22.3267045 40.4728066,22.2545771 40.6322486,22.1634673 C40.7916907,22.0723576 40.9340475,21.9603702 41.0593234,21.8275018 C41.1845993,21.6946335 41.2814019,21.5484805 41.3497342,21.3890384 L42.0216652,21.571257 C41.9305554,21.7914389 41.8014852,21.9907384 41.6344507,22.1691617 C41.4674162,22.3475849 41.2738109,22.5032284 41.053629,22.6360967 C40.8334472,22.7689651 40.5904915,22.871462 40.3247548,22.9435906 C40.059018,23.0157191 39.7856929,23.0517828 39.5047712,23.0517828 Z M41.691394,19.6579621 C41.6686166,19.339078 41.594591,19.04867 41.4693151,18.7867295 C41.3440393,18.524789 41.1845996,18.2989162 40.9909914,18.1091043 C40.7973832,17.9192923 40.5715104,17.7712412 40.3133661,17.6649465 C40.0552219,17.5586518 39.7818968,17.5055053 39.4933826,17.5055053 C39.2048684,17.5055053 38.9315433,17.5586518 38.673399,17.6649465 C38.4152548,17.7712412 38.1893819,17.9192923 37.9957738,18.1091043 C37.8021656,18.2989162 37.6465221,18.5266871 37.5288387,18.7924239 C37.4111553,19.0581606 37.3409259,19.3466705 37.3181485,19.6579621 L41.691394,19.6579621 Z M45.8938097,23.0517828 C45.4914083,23.0517828 45.1250767,22.9663687 44.7948039,22.795538 C44.4645311,22.6247072 44.1817156,22.3969363 43.9463488,22.1122183 C43.7109819,21.8275004 43.5287652,21.5010288 43.3996931,21.1327936 C43.2706209,20.7645584 43.2060858,20.3792459 43.2060858,19.9768445 C43.2060858,19.5668507 43.2782133,19.175844 43.4224704,18.8038125 C43.5667275,18.4317811 43.766027,18.1053094 44.020375,17.8243878 C44.2747231,17.5434661 44.5746215,17.3194913 44.9200792,17.1524568 C45.265537,16.9854223 45.6356647,16.9019063 46.0304736,16.9019063 C46.4936148,16.9019063 46.9206852,17.021486 47.3116979,17.2606491 C47.7027105,17.4998121 48.0120993,17.8016086 48.2398737,18.1660476 L48.2398737,17.0044042 L48.934582,17.0044042 L48.934582,24.3273128 C48.934582,24.5399022 49.0256903,24.6499914 49.2079098,24.6575839 L49.2079098,25.3295149 C49.1016151,25.3522923 48.9915258,25.3636809 48.8776387,25.3636809 C48.6802342,25.3636809 48.5113041,25.2953496 48.3708433,25.158685 C48.2303824,25.0220204 48.1601531,24.8549884 48.1601531,24.6575839 L48.1601531,21.7079209 C47.8716389,22.1482846 47.5356768,22.4823487 47.1522566,22.710123 C46.7688365,22.9378974 46.3493584,23.0517828 45.8938097,23.0517828 Z M46.1329715,22.3684632 C46.3683384,22.3684632 46.5866188,22.3305014 46.7878195,22.2545766 C46.9890202,22.1786518 47.1750331,22.078053 47.3458639,21.9527771 C47.5166946,21.8275012 47.6685419,21.6794501 47.8014103,21.5086194 C47.9342786,21.3377886 48.0538584,21.1574699 48.1601531,20.967658 L48.1601531,19.1340837 C48.1297831,18.9290868 48.0500633,18.7335834 47.9209912,18.5475677 C47.7919191,18.361552 47.6343775,18.196418 47.4483618,18.052161 C47.2623461,17.9079039 47.0592503,17.7940184 46.8390685,17.7105011 C46.6188866,17.6269839 46.4025042,17.5852259 46.1899148,17.5852259 C45.8710308,17.5852259 45.5768266,17.6535572 45.3072937,17.7902218 C45.0377607,17.9268864 44.8061936,18.107205 44.6125854,18.3311831 C44.4189772,18.5551612 44.269028,18.8114035 44.1627333,19.0999177 C44.0564386,19.3884319 44.0032921,19.6845341 44.0032921,19.9882332 C44.0032921,20.3071173 44.0564386,20.6108119 44.1627333,20.899326 C44.269028,21.1878402 44.415181,21.4402863 44.6011967,21.6566719 C44.7872124,21.8730576 45.0111872,22.0457839 45.2731277,22.174856 C45.5350682,22.3039281 45.8216799,22.3684632 46.1329715,22.3684632 Z M52.4309007,23.0517828 C51.8083175,23.0517828 51.3375909,22.8372985 51.0187068,22.4083235 C50.6998227,21.9793485 50.5403831,21.3396918 50.5403831,20.4893343 L50.5403831,17.0044042 L51.314812,17.0044042 L51.314812,20.3526703 C51.314812,21.696539 51.77415,22.3684632 52.6928399,22.3684632 C52.9206142,22.3684632 53.1445889,22.3305014 53.3647708,22.2545766 C53.5849527,22.1786518 53.7880484,22.0685625 53.9740641,21.9243055 C54.1600799,21.7800484 54.3271119,21.6092202 54.4751652,21.4118157 C54.6232185,21.2144113 54.7427983,20.9904366 54.833908,20.7398848 L54.833908,17.0044042 L55.6083369,17.0044042 L55.6083369,21.9356941 C55.6083369,22.1482835 55.7032414,22.2545766 55.8930534,22.2545766 L55.8930534,22.9378962 C55.7412038,22.9606737 55.6349107,22.9720622 55.5741709,22.9720622 C55.3995439,22.9720622 55.2495947,22.9189157 55.1243188,22.812621 C54.9990429,22.7063263 54.9364059,22.5734599 54.9364059,22.4140178 L54.9364059,21.5940343 C54.6706692,22.0571755 54.3176243,22.4159147 53.8772605,22.6702627 C53.4368968,22.9246107 52.9547817,23.0517828 52.4309007,23.0517828 Z M59.9588051,23.0517828 C59.5260339,23.0517828 59.1274347,22.9701649 58.7629958,22.8069266 C58.3985568,22.6436883 58.0834737,22.4197136 57.817737,22.1349957 C57.5520003,21.8502777 57.3451083,21.521908 57.197055,21.1498766 C57.0490017,20.7778451 56.9749761,20.379246 56.9749761,19.9540672 C56.9749761,19.5364809 57.0490017,19.1435761 57.197055,18.7753409 C57.3451083,18.4071057 57.5520003,18.0844302 57.817737,17.8073048 C58.0834737,17.5301793 58.3966587,17.3100007 58.7573015,17.1467625 C59.1179442,16.9835242 59.5146452,16.9019063 59.9474165,16.9019063 C60.3801877,16.9019063 60.7768887,16.9835242 61.1375315,17.1467625 C61.4981742,17.3100007 61.807563,17.5320774 62.0657073,17.8129991 C62.3238515,18.0939208 62.5250492,18.4165963 62.6693063,18.7810352 C62.8135634,19.1454742 62.8856908,19.5326847 62.8856908,19.9426786 C62.8856908,20.0034184 62.8837927,20.0641573 62.8799965,20.1248971 C62.8762002,20.185637 62.870506,20.227395 62.8629135,20.2501724 L57.7949597,20.2501724 C57.8177371,20.5690565 57.8917627,20.8632606 58.0170385,21.1327936 C58.1423144,21.4023265 58.3017541,21.6357917 58.4953623,21.8331962 C58.6889705,22.0306006 58.9129452,22.184346 59.1672932,22.2944369 C59.4216412,22.4045278 59.6930683,22.4595725 59.9815824,22.4595725 C60.1789869,22.4595725 60.3725922,22.4329992 60.5624041,22.3798519 C60.7522161,22.3267045 60.9268404,22.2545771 61.0862825,22.1634673 C61.2457245,22.0723576 61.3880814,21.9603702 61.5133572,21.8275018 C61.6386331,21.6946335 61.7354358,21.5484805 61.8037681,21.3890384 L62.475699,21.571257 C62.3845893,21.7914389 62.2555191,21.9907384 62.0884846,22.1691617 C61.9214501,22.3475849 61.7278448,22.5032284 61.5076629,22.6360967 C61.2874811,22.7689651 61.0445254,22.871462 60.7787887,22.9435906 C60.5130519,23.0157191 60.2397268,23.0517828 59.9588051,23.0517828 Z M62.1454279,19.6579621 C62.1226505,19.339078 62.0486249,19.04867 61.923349,18.7867295 C61.7980731,18.524789 61.6386335,18.2989162 61.4450253,18.1091043 C61.2514171,17.9192923 61.0255443,17.7712412 60.7674,17.6649465 C60.5092557,17.5586518 60.2359306,17.5055053 59.9474165,17.5055053 C59.6589023,17.5055053 59.3855772,17.5586518 59.1274329,17.6649465 C58.8692887,17.7712412 58.6434158,17.9192923 58.4498076,18.1091043 C58.2561994,18.2989162 58.100556,18.5266871 57.9828726,18.7924239 C57.8651891,19.0581606 57.7949598,19.3466705 57.7721823,19.6579621 L62.1454279,19.6579621 Z" id="trueque" fill="#28275A"></path>
            </g>
        </g>
    </g>
</svg>